<svg width="38" height="33" viewBox="0 0 38 33" fill="none" xmlns="http://www.w3.org/2000/svg">
<path d="M36.7437 8.1235C36.397 7.6285 35.8279 7.33333 35.2199 7.33333H9.88568L7.74653 2.255C7.16818 0.883667 5.82612 0 4.32464 0H0V3.66667H4.32464L13.1185 24.5392C13.4058 25.2212 14.0806 25.6667 14.8294 25.6667H29.6589C30.4319 25.6667 31.1233 25.1918 31.3958 24.4787L36.9568 9.812C37.17 9.24734 37.0903 8.61667 36.7437 8.1235ZM28.3743 22H16.0659L11.4316 11H32.5451L28.3743 22Z" fill="white"/>
<path d="M15.7561 33C17.2917 33 18.5366 31.7688 18.5366 30.25C18.5366 28.7312 17.2917 27.5 15.7561 27.5C14.2205 27.5 12.9756 28.7312 12.9756 30.25C12.9756 31.7688 14.2205 33 15.7561 33Z" fill="white"/>
<path d="M28.7317 33C30.2673 33 31.5122 31.7688 31.5122 30.25C31.5122 28.7312 30.2673 27.5 28.7317 27.5C27.1961 27.5 25.9512 28.7312 25.9512 30.25C25.9512 31.7688 27.1961 33 28.7317 33Z" fill="white"/>
</svg>
