<svg width="29" height="29" viewBox="0 0 29 29" fill="none" xmlns="http://www.w3.org/2000/svg">
<path d="M28.1789 24.9165L22.6157 19.3532C22.3646 19.1021 20.9293 17.8135 20.5487 17.4329L20.7575 18.9626C22.2976 16.9929 23.2127 14.5154 23.2127 11.8202C23.2127 5.40883 18.0178 0.213867 11.6064 0.213867C5.19496 0.213867 0 5.40883 0 11.8202C0 18.2316 5.19496 23.4266 11.6064 23.4266C14.3015 23.4266 16.779 22.5115 18.7487 20.9714L17.2191 20.8577C17.5045 21.1431 18.8882 22.5784 19.1393 22.8295L24.7026 28.3928C25.2271 28.9173 26.0753 28.9173 26.5942 28.3928L28.1733 26.8136C28.6979 26.2891 28.6979 25.441 28.1789 24.9165ZM11.6064 18.9626C7.66132 18.9626 4.46399 15.7709 4.46399 11.8202C4.46399 7.87518 7.65574 4.67785 11.6064 4.67785C15.5514 4.67785 18.7487 7.8696 18.7487 11.8202C18.7487 15.7653 15.557 18.9626 11.6064 18.9626Z" fill="white"/>
</svg>
